<mxfile host="app.diagrams.net" agent="Mozilla/5.0 (Windows NT 10.0; Win64; x64) AppleWebKit/537.36 (KHTML, like Gecko) Chrome/131.0.0.0 Safari/537.36" version="24.8.4">
  <diagram id="C5RBs43oDa-KdzZeNtuy" name="Page-1">
    <mxGraphModel dx="2514" dy="918" grid="1" gridSize="10" guides="1" tooltips="1" connect="1" arrows="1" fold="1" page="1" pageScale="1" pageWidth="827" pageHeight="1169" math="0" shadow="0">
      <root>
        <mxCell id="WIyWlLk6GJQsqaUBKTNV-0" />
        <mxCell id="WIyWlLk6GJQsqaUBKTNV-1" parent="WIyWlLk6GJQsqaUBKTNV-0" />
        <mxCell id="zkfFHV4jXpPFQw0GAbJ--0" value="Shape" style="swimlane;fontStyle=2;align=center;verticalAlign=top;childLayout=stackLayout;horizontal=1;startSize=26;horizontalStack=0;resizeParent=1;resizeLast=0;collapsible=1;marginBottom=0;rounded=0;shadow=0;strokeWidth=1;" parent="WIyWlLk6GJQsqaUBKTNV-1" vertex="1">
          <mxGeometry x="210" y="70" width="310" height="398" as="geometry">
            <mxRectangle x="230" y="140" width="160" height="26" as="alternateBounds" />
          </mxGeometry>
        </mxCell>
        <mxCell id="zkfFHV4jXpPFQw0GAbJ--3" value="- Name: integer" style="text;align=left;verticalAlign=top;spacingLeft=4;spacingRight=4;overflow=hidden;rotatable=0;points=[[0,0.5],[1,0.5]];portConstraint=eastwest;rounded=0;shadow=0;html=0;" parent="zkfFHV4jXpPFQw0GAbJ--0" vertex="1">
          <mxGeometry y="26" width="310" height="26" as="geometry" />
        </mxCell>
        <mxCell id="zkfFHV4jXpPFQw0GAbJ--4" value="" style="line;html=1;strokeWidth=1;align=left;verticalAlign=middle;spacingTop=-1;spacingLeft=3;spacingRight=3;rotatable=0;labelPosition=right;points=[];portConstraint=eastwest;" parent="zkfFHV4jXpPFQw0GAbJ--0" vertex="1">
          <mxGeometry y="52" width="310" height="8" as="geometry" />
        </mxCell>
        <mxCell id="2RW6PrNluo-qO3o-rhTT-1" value="+ set_name( name: string ): void" style="text;align=left;verticalAlign=top;spacingLeft=4;spacingRight=4;overflow=hidden;rotatable=0;points=[[0,0.5],[1,0.5]];portConstraint=eastwest;" parent="zkfFHV4jXpPFQw0GAbJ--0" vertex="1">
          <mxGeometry y="60" width="310" height="26" as="geometry" />
        </mxCell>
        <mxCell id="2RW6PrNluo-qO3o-rhTT-2" value="+ get_name( ) const: string" style="text;align=left;verticalAlign=top;spacingLeft=4;spacingRight=4;overflow=hidden;rotatable=0;points=[[0,0.5],[1,0.5]];portConstraint=eastwest;" parent="zkfFHV4jXpPFQw0GAbJ--0" vertex="1">
          <mxGeometry y="86" width="310" height="26" as="geometry" />
        </mxCell>
        <mxCell id="2RW6PrNluo-qO3o-rhTT-5" value="+ virtual to_string( ) const: string" style="text;align=left;verticalAlign=top;spacingLeft=4;spacingRight=4;overflow=hidden;rotatable=0;points=[[0,0.5],[1,0.5]];portConstraint=eastwest;" parent="zkfFHV4jXpPFQw0GAbJ--0" vertex="1">
          <mxGeometry y="112" width="310" height="26" as="geometry" />
        </mxCell>
        <mxCell id="2RW6PrNluo-qO3o-rhTT-6" value="+ Shape( )" style="text;align=left;verticalAlign=top;spacingLeft=4;spacingRight=4;overflow=hidden;rotatable=0;points=[[0,0.5],[1,0.5]];portConstraint=eastwest;" parent="zkfFHV4jXpPFQw0GAbJ--0" vertex="1">
          <mxGeometry y="138" width="310" height="26" as="geometry" />
        </mxCell>
        <mxCell id="2RW6PrNluo-qO3o-rhTT-7" value="+ Shape( name: string )" style="text;align=left;verticalAlign=top;spacingLeft=4;spacingRight=4;overflow=hidden;rotatable=0;points=[[0,0.5],[1,0.5]];portConstraint=eastwest;" parent="zkfFHV4jXpPFQw0GAbJ--0" vertex="1">
          <mxGeometry y="164" width="310" height="26" as="geometry" />
        </mxCell>
        <mxCell id="ZTjbiTtJGDEAbtTBe3YL-0" value="+ virtual calc_perim( ) const: double = 0" style="text;align=left;verticalAlign=top;spacingLeft=4;spacingRight=4;overflow=hidden;rotatable=0;points=[[0,0.5],[1,0.5]];portConstraint=eastwest;" parent="zkfFHV4jXpPFQw0GAbJ--0" vertex="1">
          <mxGeometry y="190" width="310" height="26" as="geometry" />
        </mxCell>
        <mxCell id="ZTjbiTtJGDEAbtTBe3YL-1" value="+ virtual calc_area( ) const: double = 0" style="text;align=left;verticalAlign=top;spacingLeft=4;spacingRight=4;overflow=hidden;rotatable=0;points=[[0,0.5],[1,0.5]];portConstraint=eastwest;" parent="zkfFHV4jXpPFQw0GAbJ--0" vertex="1">
          <mxGeometry y="216" width="310" height="26" as="geometry" />
        </mxCell>
        <mxCell id="2RW6PrNluo-qO3o-rhTT-8" value="Triangle_coord" style="swimlane;fontStyle=2;align=center;verticalAlign=top;childLayout=stackLayout;horizontal=1;startSize=26;horizontalStack=0;resizeParent=1;resizeLast=0;collapsible=1;marginBottom=0;rounded=0;shadow=0;strokeWidth=1;" parent="WIyWlLk6GJQsqaUBKTNV-1" vertex="1">
          <mxGeometry x="-35" y="930" width="800" height="670" as="geometry">
            <mxRectangle x="230" y="140" width="160" height="26" as="alternateBounds" />
          </mxGeometry>
        </mxCell>
        <mxCell id="2RW6PrNluo-qO3o-rhTT-9" value="- x_v1: double" style="text;align=left;verticalAlign=top;spacingLeft=4;spacingRight=4;overflow=hidden;rotatable=0;points=[[0,0.5],[1,0.5]];portConstraint=eastwest;" parent="2RW6PrNluo-qO3o-rhTT-8" vertex="1">
          <mxGeometry y="26" width="800" height="26" as="geometry" />
        </mxCell>
        <mxCell id="2RW6PrNluo-qO3o-rhTT-53" value="&amp;nbsp;- y_v1: double" style="text;strokeColor=none;align=left;fillColor=none;html=1;verticalAlign=middle;whiteSpace=wrap;rounded=0;" parent="2RW6PrNluo-qO3o-rhTT-8" vertex="1">
          <mxGeometry y="52" width="800" height="30" as="geometry" />
        </mxCell>
        <mxCell id="2RW6PrNluo-qO3o-rhTT-10" value="- x_v2: double" style="text;align=left;verticalAlign=top;spacingLeft=4;spacingRight=4;overflow=hidden;rotatable=0;points=[[0,0.5],[1,0.5]];portConstraint=eastwest;rounded=0;shadow=0;html=0;" parent="2RW6PrNluo-qO3o-rhTT-8" vertex="1">
          <mxGeometry y="82" width="800" height="26" as="geometry" />
        </mxCell>
        <mxCell id="2RW6PrNluo-qO3o-rhTT-54" value="&amp;nbsp;- y_v2: double" style="text;strokeColor=none;align=left;fillColor=none;html=1;verticalAlign=middle;whiteSpace=wrap;rounded=0;" parent="2RW6PrNluo-qO3o-rhTT-8" vertex="1">
          <mxGeometry y="108" width="800" height="30" as="geometry" />
        </mxCell>
        <mxCell id="2RW6PrNluo-qO3o-rhTT-11" value="- x_v3: double" style="text;align=left;verticalAlign=top;spacingLeft=4;spacingRight=4;overflow=hidden;rotatable=0;points=[[0,0.5],[1,0.5]];portConstraint=eastwest;rounded=0;shadow=0;html=0;" parent="2RW6PrNluo-qO3o-rhTT-8" vertex="1">
          <mxGeometry y="138" width="800" height="26" as="geometry" />
        </mxCell>
        <mxCell id="2RW6PrNluo-qO3o-rhTT-55" value="&amp;nbsp;- y_v3: double" style="text;strokeColor=none;align=left;fillColor=none;html=1;verticalAlign=middle;whiteSpace=wrap;rounded=0;" parent="2RW6PrNluo-qO3o-rhTT-8" vertex="1">
          <mxGeometry y="164" width="800" height="30" as="geometry" />
        </mxCell>
        <mxCell id="2RW6PrNluo-qO3o-rhTT-12" value="" style="line;html=1;strokeWidth=1;align=left;verticalAlign=middle;spacingTop=-1;spacingLeft=3;spacingRight=3;rotatable=0;labelPosition=right;points=[];portConstraint=eastwest;" parent="2RW6PrNluo-qO3o-rhTT-8" vertex="1">
          <mxGeometry y="194" width="800" height="8" as="geometry" />
        </mxCell>
        <mxCell id="2RW6PrNluo-qO3o-rhTT-13" value="- set_x_v1( x: double ): void" style="text;align=left;verticalAlign=top;spacingLeft=4;spacingRight=4;overflow=hidden;rotatable=0;points=[[0,0.5],[1,0.5]];portConstraint=eastwest;" parent="2RW6PrNluo-qO3o-rhTT-8" vertex="1">
          <mxGeometry y="202" width="800" height="26" as="geometry" />
        </mxCell>
        <mxCell id="2RW6PrNluo-qO3o-rhTT-14" value="- set_y_v1( y: double ): void" style="text;align=left;verticalAlign=top;spacingLeft=4;spacingRight=4;overflow=hidden;rotatable=0;points=[[0,0.5],[1,0.5]];portConstraint=eastwest;" parent="2RW6PrNluo-qO3o-rhTT-8" vertex="1">
          <mxGeometry y="228" width="800" height="26" as="geometry" />
        </mxCell>
        <mxCell id="2RW6PrNluo-qO3o-rhTT-15" value="- set_x_v2( x: double ): void" style="text;align=left;verticalAlign=top;spacingLeft=4;spacingRight=4;overflow=hidden;rotatable=0;points=[[0,0.5],[1,0.5]];portConstraint=eastwest;" parent="2RW6PrNluo-qO3o-rhTT-8" vertex="1">
          <mxGeometry y="254" width="800" height="26" as="geometry" />
        </mxCell>
        <mxCell id="2RW6PrNluo-qO3o-rhTT-16" value="- set_y_v2( y: double ): void" style="text;align=left;verticalAlign=top;spacingLeft=4;spacingRight=4;overflow=hidden;rotatable=0;points=[[0,0.5],[1,0.5]];portConstraint=eastwest;" parent="2RW6PrNluo-qO3o-rhTT-8" vertex="1">
          <mxGeometry y="280" width="800" height="26" as="geometry" />
        </mxCell>
        <mxCell id="2RW6PrNluo-qO3o-rhTT-17" value="- set_x_v3( x: double ): void" style="text;align=left;verticalAlign=top;spacingLeft=4;spacingRight=4;overflow=hidden;rotatable=0;points=[[0,0.5],[1,0.5]];portConstraint=eastwest;" parent="2RW6PrNluo-qO3o-rhTT-8" vertex="1">
          <mxGeometry y="306" width="800" height="26" as="geometry" />
        </mxCell>
        <mxCell id="2RW6PrNluo-qO3o-rhTT-18" value="- set_y_v3( y: double ): void" style="text;align=left;verticalAlign=top;spacingLeft=4;spacingRight=4;overflow=hidden;rotatable=0;points=[[0,0.5],[1,0.5]];portConstraint=eastwest;" parent="2RW6PrNluo-qO3o-rhTT-8" vertex="1">
          <mxGeometry y="332" width="800" height="26" as="geometry" />
        </mxCell>
        <mxCell id="2RW6PrNluo-qO3o-rhTT-19" value="+ set_all_vertexs( x1: double; y1: double; x2: double; y2: double; x3: double; y3: double ): void" style="text;align=left;verticalAlign=top;spacingLeft=4;spacingRight=4;overflow=hidden;rotatable=0;points=[[0,0.5],[1,0.5]];portConstraint=eastwest;" parent="2RW6PrNluo-qO3o-rhTT-8" vertex="1">
          <mxGeometry y="358" width="800" height="26" as="geometry" />
        </mxCell>
        <mxCell id="2RW6PrNluo-qO3o-rhTT-20" value="+ get_x_v1( ) const: double" style="text;align=left;verticalAlign=top;spacingLeft=4;spacingRight=4;overflow=hidden;rotatable=0;points=[[0,0.5],[1,0.5]];portConstraint=eastwest;" parent="2RW6PrNluo-qO3o-rhTT-8" vertex="1">
          <mxGeometry y="384" width="800" height="26" as="geometry" />
        </mxCell>
        <mxCell id="2RW6PrNluo-qO3o-rhTT-21" value="+ get_y_v1( ) const: double" style="text;align=left;verticalAlign=top;spacingLeft=4;spacingRight=4;overflow=hidden;rotatable=0;points=[[0,0.5],[1,0.5]];portConstraint=eastwest;" parent="2RW6PrNluo-qO3o-rhTT-8" vertex="1">
          <mxGeometry y="410" width="800" height="26" as="geometry" />
        </mxCell>
        <mxCell id="2RW6PrNluo-qO3o-rhTT-73" value="+ get_x_v2( ) const: double" style="text;align=left;verticalAlign=top;spacingLeft=4;spacingRight=4;overflow=hidden;rotatable=0;points=[[0,0.5],[1,0.5]];portConstraint=eastwest;" parent="2RW6PrNluo-qO3o-rhTT-8" vertex="1">
          <mxGeometry y="436" width="800" height="26" as="geometry" />
        </mxCell>
        <mxCell id="2RW6PrNluo-qO3o-rhTT-74" value="+ get_y_v2( ) const: double" style="text;align=left;verticalAlign=top;spacingLeft=4;spacingRight=4;overflow=hidden;rotatable=0;points=[[0,0.5],[1,0.5]];portConstraint=eastwest;" parent="2RW6PrNluo-qO3o-rhTT-8" vertex="1">
          <mxGeometry y="462" width="800" height="26" as="geometry" />
        </mxCell>
        <mxCell id="2RW6PrNluo-qO3o-rhTT-75" value="+ get_x_v3( ) const: double" style="text;align=left;verticalAlign=top;spacingLeft=4;spacingRight=4;overflow=hidden;rotatable=0;points=[[0,0.5],[1,0.5]];portConstraint=eastwest;" parent="2RW6PrNluo-qO3o-rhTT-8" vertex="1">
          <mxGeometry y="488" width="800" height="26" as="geometry" />
        </mxCell>
        <mxCell id="2RW6PrNluo-qO3o-rhTT-76" value="+ get_y_v3( ) const: double" style="text;align=left;verticalAlign=top;spacingLeft=4;spacingRight=4;overflow=hidden;rotatable=0;points=[[0,0.5],[1,0.5]];portConstraint=eastwest;" parent="2RW6PrNluo-qO3o-rhTT-8" vertex="1">
          <mxGeometry y="514" width="800" height="26" as="geometry" />
        </mxCell>
        <mxCell id="2RW6PrNluo-qO3o-rhTT-77" value="+ calc_perim( ) const override: double" style="text;align=left;verticalAlign=top;spacingLeft=4;spacingRight=4;overflow=hidden;rotatable=0;points=[[0,0.5],[1,0.5]];portConstraint=eastwest;" parent="2RW6PrNluo-qO3o-rhTT-8" vertex="1">
          <mxGeometry y="540" width="800" height="26" as="geometry" />
        </mxCell>
        <mxCell id="2RW6PrNluo-qO3o-rhTT-78" value="+ calc_area( ) const override: double" style="text;align=left;verticalAlign=top;spacingLeft=4;spacingRight=4;overflow=hidden;rotatable=0;points=[[0,0.5],[1,0.5]];portConstraint=eastwest;" parent="2RW6PrNluo-qO3o-rhTT-8" vertex="1">
          <mxGeometry y="566" width="800" height="26" as="geometry" />
        </mxCell>
        <mxCell id="2RW6PrNluo-qO3o-rhTT-79" value="+ to_string( ) const override: double" style="text;align=left;verticalAlign=top;spacingLeft=4;spacingRight=4;overflow=hidden;rotatable=0;points=[[0,0.5],[1,0.5]];portConstraint=eastwest;" parent="2RW6PrNluo-qO3o-rhTT-8" vertex="1">
          <mxGeometry y="592" width="800" height="26" as="geometry" />
        </mxCell>
        <mxCell id="2RW6PrNluo-qO3o-rhTT-80" value="+ Triangle_coord( )" style="text;align=left;verticalAlign=top;spacingLeft=4;spacingRight=4;overflow=hidden;rotatable=0;points=[[0,0.5],[1,0.5]];portConstraint=eastwest;" parent="2RW6PrNluo-qO3o-rhTT-8" vertex="1">
          <mxGeometry y="618" width="800" height="26" as="geometry" />
        </mxCell>
        <mxCell id="2RW6PrNluo-qO3o-rhTT-81" value="+ Triangle_coord( name: string; x_v1: double; y_v1: double; x_v2: double; y_v2: double; x_v3: double; y_v3: double )" style="text;align=left;verticalAlign=top;spacingLeft=4;spacingRight=4;overflow=hidden;rotatable=0;points=[[0,0.5],[1,0.5]];portConstraint=eastwest;" parent="2RW6PrNluo-qO3o-rhTT-8" vertex="1">
          <mxGeometry y="644" width="800" height="26" as="geometry" />
        </mxCell>
        <mxCell id="2RW6PrNluo-qO3o-rhTT-108" value="Triangle_sides" style="swimlane;fontStyle=2;align=center;verticalAlign=top;childLayout=stackLayout;horizontal=1;startSize=26;horizontalStack=0;resizeParent=1;resizeLast=0;collapsible=1;marginBottom=0;rounded=0;shadow=0;strokeWidth=1;" parent="WIyWlLk6GJQsqaUBKTNV-1" vertex="1">
          <mxGeometry x="890" y="460" width="590" height="440" as="geometry">
            <mxRectangle x="230" y="140" width="160" height="26" as="alternateBounds" />
          </mxGeometry>
        </mxCell>
        <mxCell id="2RW6PrNluo-qO3o-rhTT-109" value="- side1: double" style="text;align=left;verticalAlign=top;spacingLeft=4;spacingRight=4;overflow=hidden;rotatable=0;points=[[0,0.5],[1,0.5]];portConstraint=eastwest;" parent="2RW6PrNluo-qO3o-rhTT-108" vertex="1">
          <mxGeometry y="26" width="590" height="26" as="geometry" />
        </mxCell>
        <mxCell id="2RW6PrNluo-qO3o-rhTT-110" value="&amp;nbsp;- side2: double" style="text;strokeColor=none;align=left;fillColor=none;html=1;verticalAlign=middle;whiteSpace=wrap;rounded=0;" parent="2RW6PrNluo-qO3o-rhTT-108" vertex="1">
          <mxGeometry y="52" width="590" height="30" as="geometry" />
        </mxCell>
        <mxCell id="2RW6PrNluo-qO3o-rhTT-111" value="- side3: double" style="text;align=left;verticalAlign=top;spacingLeft=4;spacingRight=4;overflow=hidden;rotatable=0;points=[[0,0.5],[1,0.5]];portConstraint=eastwest;rounded=0;shadow=0;html=0;" parent="2RW6PrNluo-qO3o-rhTT-108" vertex="1">
          <mxGeometry y="82" width="590" height="26" as="geometry" />
        </mxCell>
        <mxCell id="2RW6PrNluo-qO3o-rhTT-115" value="" style="line;html=1;strokeWidth=1;align=left;verticalAlign=middle;spacingTop=-1;spacingLeft=3;spacingRight=3;rotatable=0;labelPosition=right;points=[];portConstraint=eastwest;" parent="2RW6PrNluo-qO3o-rhTT-108" vertex="1">
          <mxGeometry y="108" width="590" height="8" as="geometry" />
        </mxCell>
        <mxCell id="2RW6PrNluo-qO3o-rhTT-116" value="- set_side1( length: double ): void" style="text;align=left;verticalAlign=top;spacingLeft=4;spacingRight=4;overflow=hidden;rotatable=0;points=[[0,0.5],[1,0.5]];portConstraint=eastwest;" parent="2RW6PrNluo-qO3o-rhTT-108" vertex="1">
          <mxGeometry y="116" width="590" height="26" as="geometry" />
        </mxCell>
        <mxCell id="2RW6PrNluo-qO3o-rhTT-117" value="- set_side2( length: double ): void" style="text;align=left;verticalAlign=top;spacingLeft=4;spacingRight=4;overflow=hidden;rotatable=0;points=[[0,0.5],[1,0.5]];portConstraint=eastwest;" parent="2RW6PrNluo-qO3o-rhTT-108" vertex="1">
          <mxGeometry y="142" width="590" height="26" as="geometry" />
        </mxCell>
        <mxCell id="2RW6PrNluo-qO3o-rhTT-118" value="- set_side3( length: double ): void" style="text;align=left;verticalAlign=top;spacingLeft=4;spacingRight=4;overflow=hidden;rotatable=0;points=[[0,0.5],[1,0.5]];portConstraint=eastwest;" parent="2RW6PrNluo-qO3o-rhTT-108" vertex="1">
          <mxGeometry y="168" width="590" height="26" as="geometry" />
        </mxCell>
        <mxCell id="2RW6PrNluo-qO3o-rhTT-119" value="+ set_all_sides( length_s1: double; length_s2: double; length_s3: double ): void" style="text;align=left;verticalAlign=top;spacingLeft=4;spacingRight=4;overflow=hidden;rotatable=0;points=[[0,0.5],[1,0.5]];portConstraint=eastwest;" parent="2RW6PrNluo-qO3o-rhTT-108" vertex="1">
          <mxGeometry y="194" width="590" height="26" as="geometry" />
        </mxCell>
        <mxCell id="2RW6PrNluo-qO3o-rhTT-123" value="+ get_side1( ) const: double" style="text;align=left;verticalAlign=top;spacingLeft=4;spacingRight=4;overflow=hidden;rotatable=0;points=[[0,0.5],[1,0.5]];portConstraint=eastwest;" parent="2RW6PrNluo-qO3o-rhTT-108" vertex="1">
          <mxGeometry y="220" width="590" height="26" as="geometry" />
        </mxCell>
        <mxCell id="2RW6PrNluo-qO3o-rhTT-124" value="+ get_side2( ) const: double" style="text;align=left;verticalAlign=top;spacingLeft=4;spacingRight=4;overflow=hidden;rotatable=0;points=[[0,0.5],[1,0.5]];portConstraint=eastwest;" parent="2RW6PrNluo-qO3o-rhTT-108" vertex="1">
          <mxGeometry y="246" width="590" height="26" as="geometry" />
        </mxCell>
        <mxCell id="2RW6PrNluo-qO3o-rhTT-125" value="+ get_side3( ) const: double" style="text;align=left;verticalAlign=top;spacingLeft=4;spacingRight=4;overflow=hidden;rotatable=0;points=[[0,0.5],[1,0.5]];portConstraint=eastwest;" parent="2RW6PrNluo-qO3o-rhTT-108" vertex="1">
          <mxGeometry y="272" width="590" height="26" as="geometry" />
        </mxCell>
        <mxCell id="2RW6PrNluo-qO3o-rhTT-129" value="+ calc_perim( ) const override: double" style="text;align=left;verticalAlign=top;spacingLeft=4;spacingRight=4;overflow=hidden;rotatable=0;points=[[0,0.5],[1,0.5]];portConstraint=eastwest;" parent="2RW6PrNluo-qO3o-rhTT-108" vertex="1">
          <mxGeometry y="298" width="590" height="26" as="geometry" />
        </mxCell>
        <mxCell id="2RW6PrNluo-qO3o-rhTT-130" value="+ calc_area( ) const override: double" style="text;align=left;verticalAlign=top;spacingLeft=4;spacingRight=4;overflow=hidden;rotatable=0;points=[[0,0.5],[1,0.5]];portConstraint=eastwest;" parent="2RW6PrNluo-qO3o-rhTT-108" vertex="1">
          <mxGeometry y="324" width="590" height="26" as="geometry" />
        </mxCell>
        <mxCell id="2RW6PrNluo-qO3o-rhTT-131" value="+ to_string( ) const override: double" style="text;align=left;verticalAlign=top;spacingLeft=4;spacingRight=4;overflow=hidden;rotatable=0;points=[[0,0.5],[1,0.5]];portConstraint=eastwest;" parent="2RW6PrNluo-qO3o-rhTT-108" vertex="1">
          <mxGeometry y="350" width="590" height="26" as="geometry" />
        </mxCell>
        <mxCell id="2RW6PrNluo-qO3o-rhTT-132" value="+ Triangle_sides( )" style="text;align=left;verticalAlign=top;spacingLeft=4;spacingRight=4;overflow=hidden;rotatable=0;points=[[0,0.5],[1,0.5]];portConstraint=eastwest;" parent="2RW6PrNluo-qO3o-rhTT-108" vertex="1">
          <mxGeometry y="376" width="590" height="26" as="geometry" />
        </mxCell>
        <mxCell id="2RW6PrNluo-qO3o-rhTT-133" value="+ Triangle_sides( name: string; side1: double; side2: double; side3: double )" style="text;align=left;verticalAlign=top;spacingLeft=4;spacingRight=4;overflow=hidden;rotatable=0;points=[[0,0.5],[1,0.5]];portConstraint=eastwest;" parent="2RW6PrNluo-qO3o-rhTT-108" vertex="1">
          <mxGeometry y="402" width="590" height="26" as="geometry" />
        </mxCell>
        <mxCell id="2RW6PrNluo-qO3o-rhTT-185" style="rounded=0;orthogonalLoop=1;jettySize=auto;html=1;endArrow=block;endFill=0;edgeStyle=elbowEdgeStyle;" parent="WIyWlLk6GJQsqaUBKTNV-1" source="2RW6PrNluo-qO3o-rhTT-164" edge="1">
          <mxGeometry relative="1" as="geometry">
            <Array as="points">
              <mxPoint x="250" y="620" />
            </Array>
            <mxPoint x="250" y="468" as="targetPoint" />
          </mxGeometry>
        </mxCell>
        <mxCell id="2RW6PrNluo-qO3o-rhTT-164" value="Rectangle" style="swimlane;fontStyle=2;align=center;verticalAlign=top;childLayout=stackLayout;horizontal=1;startSize=26;horizontalStack=0;resizeParent=1;resizeLast=0;collapsible=1;marginBottom=0;rounded=0;shadow=0;strokeWidth=1;" parent="WIyWlLk6GJQsqaUBKTNV-1" vertex="1">
          <mxGeometry x="-760" y="570" width="640" height="518" as="geometry">
            <mxRectangle x="230" y="140" width="160" height="26" as="alternateBounds" />
          </mxGeometry>
        </mxCell>
        <mxCell id="2RW6PrNluo-qO3o-rhTT-165" value="- side1: double" style="text;align=left;verticalAlign=top;spacingLeft=4;spacingRight=4;overflow=hidden;rotatable=0;points=[[0,0.5],[1,0.5]];portConstraint=eastwest;" parent="2RW6PrNluo-qO3o-rhTT-164" vertex="1">
          <mxGeometry y="26" width="640" height="26" as="geometry" />
        </mxCell>
        <mxCell id="2RW6PrNluo-qO3o-rhTT-166" value="&amp;nbsp;- side2: double" style="text;strokeColor=none;align=left;fillColor=none;html=1;verticalAlign=middle;whiteSpace=wrap;rounded=0;" parent="2RW6PrNluo-qO3o-rhTT-164" vertex="1">
          <mxGeometry y="52" width="640" height="30" as="geometry" />
        </mxCell>
        <mxCell id="2RW6PrNluo-qO3o-rhTT-168" value="" style="line;html=1;strokeWidth=1;align=left;verticalAlign=middle;spacingTop=-1;spacingLeft=3;spacingRight=3;rotatable=0;labelPosition=right;points=[];portConstraint=eastwest;" parent="2RW6PrNluo-qO3o-rhTT-164" vertex="1">
          <mxGeometry y="82" width="640" height="8" as="geometry" />
        </mxCell>
        <mxCell id="2RW6PrNluo-qO3o-rhTT-169" value="- set_side1( length: double ): void" style="text;align=left;verticalAlign=top;spacingLeft=4;spacingRight=4;overflow=hidden;rotatable=0;points=[[0,0.5],[1,0.5]];portConstraint=eastwest;" parent="2RW6PrNluo-qO3o-rhTT-164" vertex="1">
          <mxGeometry y="90" width="640" height="26" as="geometry" />
        </mxCell>
        <mxCell id="2RW6PrNluo-qO3o-rhTT-170" value="- set_side2( length: double ): void" style="text;align=left;verticalAlign=top;spacingLeft=4;spacingRight=4;overflow=hidden;rotatable=0;points=[[0,0.5],[1,0.5]];portConstraint=eastwest;" parent="2RW6PrNluo-qO3o-rhTT-164" vertex="1">
          <mxGeometry y="116" width="640" height="26" as="geometry" />
        </mxCell>
        <mxCell id="2RW6PrNluo-qO3o-rhTT-172" value="+ set_all_sides( length_s1: double; length_s2: double): void" style="text;align=left;verticalAlign=top;spacingLeft=4;spacingRight=4;overflow=hidden;rotatable=0;points=[[0,0.5],[1,0.5]];portConstraint=eastwest;" parent="2RW6PrNluo-qO3o-rhTT-164" vertex="1">
          <mxGeometry y="142" width="640" height="26" as="geometry" />
        </mxCell>
        <mxCell id="2RW6PrNluo-qO3o-rhTT-173" value="+ get_side1( ) const: double" style="text;align=left;verticalAlign=top;spacingLeft=4;spacingRight=4;overflow=hidden;rotatable=0;points=[[0,0.5],[1,0.5]];portConstraint=eastwest;" parent="2RW6PrNluo-qO3o-rhTT-164" vertex="1">
          <mxGeometry y="168" width="640" height="26" as="geometry" />
        </mxCell>
        <mxCell id="2RW6PrNluo-qO3o-rhTT-174" value="+ get_side2( ) const: double" style="text;align=left;verticalAlign=top;spacingLeft=4;spacingRight=4;overflow=hidden;rotatable=0;points=[[0,0.5],[1,0.5]];portConstraint=eastwest;" parent="2RW6PrNluo-qO3o-rhTT-164" vertex="1">
          <mxGeometry y="194" width="640" height="26" as="geometry" />
        </mxCell>
        <mxCell id="2RW6PrNluo-qO3o-rhTT-176" value="+ calc_perim( ) const override: double" style="text;align=left;verticalAlign=top;spacingLeft=4;spacingRight=4;overflow=hidden;rotatable=0;points=[[0,0.5],[1,0.5]];portConstraint=eastwest;" parent="2RW6PrNluo-qO3o-rhTT-164" vertex="1">
          <mxGeometry y="220" width="640" height="26" as="geometry" />
        </mxCell>
        <mxCell id="2RW6PrNluo-qO3o-rhTT-177" value="+ calc_area( ) const override: double" style="text;align=left;verticalAlign=top;spacingLeft=4;spacingRight=4;overflow=hidden;rotatable=0;points=[[0,0.5],[1,0.5]];portConstraint=eastwest;" parent="2RW6PrNluo-qO3o-rhTT-164" vertex="1">
          <mxGeometry y="246" width="640" height="26" as="geometry" />
        </mxCell>
        <mxCell id="2RW6PrNluo-qO3o-rhTT-178" value="+ to_string( ) const override: double" style="text;align=left;verticalAlign=top;spacingLeft=4;spacingRight=4;overflow=hidden;rotatable=0;points=[[0,0.5],[1,0.5]];portConstraint=eastwest;" parent="2RW6PrNluo-qO3o-rhTT-164" vertex="1">
          <mxGeometry y="272" width="640" height="26" as="geometry" />
        </mxCell>
        <mxCell id="2RW6PrNluo-qO3o-rhTT-179" value="+ Rectangle( )" style="text;align=left;verticalAlign=top;spacingLeft=4;spacingRight=4;overflow=hidden;rotatable=0;points=[[0,0.5],[1,0.5]];portConstraint=eastwest;" parent="2RW6PrNluo-qO3o-rhTT-164" vertex="1">
          <mxGeometry y="298" width="640" height="26" as="geometry" />
        </mxCell>
        <mxCell id="2RW6PrNluo-qO3o-rhTT-180" value="+ Rectangle( name: string; side1: double; side2: double )" style="text;align=left;verticalAlign=top;spacingLeft=4;spacingRight=4;overflow=hidden;rotatable=0;points=[[0,0.5],[1,0.5]];portConstraint=eastwest;" parent="2RW6PrNluo-qO3o-rhTT-164" vertex="1">
          <mxGeometry y="324" width="640" height="26" as="geometry" />
        </mxCell>
        <mxCell id="2RW6PrNluo-qO3o-rhTT-191" value="" style="edgeStyle=none;orthogonalLoop=1;jettySize=auto;html=1;rounded=0;entryX=0;entryY=0.769;entryDx=0;entryDy=0;entryPerimeter=0;endArrow=none;endFill=0;startArrow=block;startFill=0;" parent="WIyWlLk6GJQsqaUBKTNV-1" target="2RW6PrNluo-qO3o-rhTT-123" edge="1">
          <mxGeometry width="80" relative="1" as="geometry">
            <mxPoint x="510" y="470" as="sourcePoint" />
            <mxPoint x="440" y="700" as="targetPoint" />
            <Array as="points" />
          </mxGeometry>
        </mxCell>
        <mxCell id="2RW6PrNluo-qO3o-rhTT-192" value="" style="edgeStyle=none;orthogonalLoop=1;jettySize=auto;html=1;rounded=0;entryX=0.5;entryY=0;entryDx=0;entryDy=0;endArrow=none;endFill=0;startArrow=block;startFill=0;" parent="WIyWlLk6GJQsqaUBKTNV-1" target="2RW6PrNluo-qO3o-rhTT-8" edge="1">
          <mxGeometry width="80" relative="1" as="geometry">
            <mxPoint x="365" y="470" as="sourcePoint" />
            <mxPoint x="364.58" y="860" as="targetPoint" />
            <Array as="points" />
          </mxGeometry>
        </mxCell>
        <mxCell id="WYcQBeiz-ssmWmoLNCG5-0" value="Направление стрелок всегда к базовому классу" style="text;html=1;align=center;verticalAlign=middle;resizable=0;points=[];autosize=1;strokeColor=none;fillColor=none;" vertex="1" parent="WIyWlLk6GJQsqaUBKTNV-1">
          <mxGeometry x="-60" y="530" width="290" height="30" as="geometry" />
        </mxCell>
      </root>
    </mxGraphModel>
  </diagram>
</mxfile>
